<?xml version="1.0" standalone="no"?>
<!DOCTYPE svg PUBLIC "-//W3C//DTD SVG 20010904//EN"
 "http://www.w3.org/TR/2001/REC-SVG-20010904/DTD/svg10.dtd">
<svg version="1.0" xmlns="http://www.w3.org/2000/svg"
 width="128.000000pt" height="128.000000pt" viewBox="0 0 128.000000 128.000000"
 preserveAspectRatio="xMidYMid meet">
<metadata>
Created by potrace 1.11, written by Peter Selinger 2001-2013
</metadata>
<g transform="translate(0.000000,128.000000) scale(0.100000,-0.100000)"
fill="#000000" stroke="none">
<path d="M475 1256 c-118 -32 -199 -79 -285 -166 -123 -124 -180 -254 -185
-425 -4 -126 12 -202 66 -313 72 -149 208 -265 379 -322 85 -29 239 -35 330
-14 219 51 404 222 472 437 27 84 33 241 12 327 -55 237 -250 432 -485 486
-13 3 -69 7 -124 9 -80 3 -116 -1 -180 -19z m234 -247 c77 -27 65 -156 -16
-172 -81 -15 -143 76 -97 141 27 39 63 48 113 31z m26 -239 c24 -26 22 -43
-19 -209 -20 -79 -36 -150 -36 -159 0 -14 3 -14 63 5 27 9 21 -23 -12 -54 -16
-16 -54 -43 -85 -61 -46 -29 -60 -32 -83 -25 -50 17 -51 47 -10 216 43 174 45
192 20 182 -65 -27 -84 -8 -35 36 93 86 160 109 197 69z"/>
</g>
</svg>
